<?xml version="1.0" encoding="UTF-8" standalone="no"?>
<svg
   xmlns:dc="http://purl.org/dc/elements/1.1/"
   xmlns:cc="http://creativecommons.org/ns#"
   xmlns:rdf="http://www.w3.org/1999/02/22-rdf-syntax-ns#"
   xmlns:svg="http://www.w3.org/2000/svg"
   xmlns="http://www.w3.org/2000/svg"
   xmlns:sodipodi="http://sodipodi.sourceforge.net/DTD/sodipodi-0.dtd"
   xmlns:inkscape="http://www.inkscape.org/namespaces/inkscape"
   version="1.1"
   viewbox="0 0 17.32050807568877 20"
   id="svg4"
   sodipodi:docname="double-round-hexagon.svg"
   width="18.320509"
   height="19.974277"
   inkscape:version="0.92.4 (5da689c313, 2019-01-14)">
  <metadata
     id="metadata10">
    <rdf:RDF>
      <cc:Work
         rdf:about="">
        <dc:format>image/svg+xml</dc:format>
        <dc:type
           rdf:resource="http://purl.org/dc/dcmitype/StillImage" />
        <dc:title></dc:title>
      </cc:Work>
    </rdf:RDF>
  </metadata>
  <defs
     id="defs8" />
  <sodipodi:namedview
     pagecolor="#ffffff"
     bordercolor="#666666"
     borderopacity="1"
     objecttolerance="10"
     gridtolerance="10"
     guidetolerance="10"
     inkscape:pageopacity="0"
     inkscape:pageshadow="2"
     inkscape:window-width="1920"
     inkscape:window-height="1001"
     id="namedview6"
     showgrid="false"
     inkscape:zoom="18.88"
     inkscape:cx="16.732371"
     inkscape:cy="3.3975784"
     inkscape:window-x="-9"
     inkscape:window-y="-9"
     inkscape:window-maximized="1"
     inkscape:current-layer="svg4" />
  <path
     d="m 7.4376401,0.96209337 q 1.73441,-1.0013538 3.4688199,0 l 5.20323,3.00406133 q 1.73441,1.0013538 1.73441,3.0040614 v 6.0081229 q 0,2.002708 -1.73441,3.004062 l -5.20323,3.004061 q -1.7344099,1.001354 -3.4688199,0 L 2.23441,15.982401 Q 0.49999999,14.981047 0.49999999,12.978339 V 6.9702161 q 0,-2.0027076 1.73441001,-3.0040614 z"
     id="path2"
     style="fill:none;stroke:#000000;stroke-width:1;stroke-opacity:1"
     inkscape:connector-curvature="0" />
  <path
     inkscape:connector-curvature="0"
     style="fill:#000000;fill-opacity:1;stroke:none;stroke-width:1;stroke-opacity:1"
     id="path837"
     d="m 7.7156194,2.3953304 q 1.4564298,-0.8421053 2.9128586,0 l 4.36929,2.5263156 Q 16.4542,5.7637513 16.4542,7.4479618 v 5.0526312 q 0,1.684211 -1.456432,2.526316 l -4.36929,2.526315 q -1.4564288,0.842107 -2.9128586,0 l -4.36929,-2.526315 Q 1.8898995,14.184804 1.8898995,12.500593 V 7.4479618 q 0,-1.6842105 1.4564299,-2.5263158 z" />
</svg>
