<svg xmlns="http://www.w3.org/2000/svg" viewbox="0 0 18.321 19.974">
    <path d="M7.438.962q1.734-1.001 3.468 0l5.204 3.004q1.734 1.002 1.734 3.004v6.008q0 2.003-1.734 3.004l-5.204 3.004q-1.734 1.002-3.468 0l-5.204-3.004Q.5 14.981.5 12.978V6.97q0-2.002 1.734-3.004z" fill="none" stroke="#000" />
    <path d="M7.716 2.395q1.456-.842 2.912 0l4.37 2.527q1.456.842 1.456 2.526v5.053q0 1.684-1.456 2.526l-4.37 2.526q-1.456.842-2.912 0l-4.37-2.526Q1.89 14.185 1.89 12.5V7.448q0-1.684 1.456-2.526z" /></svg>
