<svg xmlns="http://www.w3.org/2000/svg" viewbox="0 0 18.321 19.974">
    <path d="M9.16 0c-.67 0-1.342.185-1.982.555l-5.196 3C.702 4.294 0 5.509 0 6.986v6c0 1.478.703 2.695 1.982 3.434l5.196 3c1.28.739 2.685.739 3.965 0l5.195-3c1.28-.739 1.982-1.956 1.982-3.434v-6c0-1.477-.702-2.692-1.982-3.431l-5.195-3A3.945 3.945 0 009.16 0zm0 .975c.484 0 .968.148 1.483.445l5.195 3c1.03.594 1.482 1.377 1.482 2.566v6c0 1.19-.452 1.974-1.482 2.569l-5.195 3c-1.03.594-1.936.594-2.965 0l-5.196-3C1.452 14.96 1 14.175 1 12.986v-6c0-1.189.453-1.972 1.482-2.566l5.196-3c.515-.297.999-.445 1.482-.445z" fill="none" stroke="#000" stroke-width=".4" /></svg>
